HIERARCHY
ROOT pelvis
{
	OFFSET 0.000000 0.000000 0.000000
	CHANNELS 6 Xposition Yposition Zposition Zrotation Xrotation Yrotation
	JOINT lfemur
	{
		OFFSET 11.446000 0.000000 0.000000
		CHANNELS 3 Zrotation Xrotation Yrotation
		JOINT ltibia
		{
			OFFSET 0.000000 -42.030400 0.000000
			CHANNELS 3 Zrotation Xrotation Yrotation
			JOINT lfoot
			{
				OFFSET 0.000000 -39.930200 0.000000
				CHANNELS 3 Zrotation Xrotation Yrotation
				JOINT ltoes
				{
					OFFSET 0.000000 0.000000 11.775800
					CHANNELS 3 Zrotation Xrotation Yrotation
					End Site
					{
					    OFFSET 0.000000 0.000000 5.000000
					}
				}
			}
		}
	}
	JOINT rfemur
	{
		OFFSET -11.446000 0.000000 0.000000
		CHANNELS 3 Zrotation Xrotation Yrotation
		JOINT rtibia
		{
			OFFSET 0.000000 -42.030400 0.000000
			CHANNELS 3 Zrotation Xrotation Yrotation
			JOINT rfoot
			{
				OFFSET 0.000000 -39.930200 0.000000
				CHANNELS 3 Zrotation Xrotation Yrotation
				JOINT rtoes
				{
					OFFSET 0.000000 0.000000 11.775800
					CHANNELS 3 Zrotation Xrotation Yrotation
					End Site
					{
					    OFFSET 0.000000 0.000000 5.000000
					}
				}
			}
		}
	}
	JOINT thorax
	{
		OFFSET 0.000000 11.255600 -5.000000
		CHANNELS 3 Zrotation Xrotation Yrotation
		JOINT head
		{
			OFFSET 0.000000 43.799300 0.000000
			CHANNELS 3 Zrotation Xrotation Yrotation
			End Site
			{
			    OFFSET 0.000000 5.000000 0.000000
			}
		}
		JOINT lclavicle
		{
			OFFSET 0.000000 39.863000 0.000000
			CHANNELS 3 Zrotation Xrotation Yrotation
			JOINT lhumerus
			{
				OFFSET 17.380600 4.958300 0.000000
				CHANNELS 3 Zrotation Xrotation Yrotation
				JOINT lradius
				{
					OFFSET 0.000000 -27.561300 0.000000
					CHANNELS 3 Zrotation Xrotation Yrotation
					JOINT lhand
					{
						OFFSET 0.000000 -26.933000 0.000000
						CHANNELS 3 Zrotation Xrotation Yrotation
						End Site
						{
						    OFFSET 0.000000 -5.000000 0.000000
						}
					}
				}
			}
		}
		JOINT rclavicle
		{
			OFFSET 0.000000 39.863000 0.000000
			CHANNELS 3 Zrotation Xrotation Yrotation
			JOINT rhumerus
			{
				OFFSET -17.380600 4.958300 0.000000
				CHANNELS 3 Zrotation Xrotation Yrotation
				JOINT rradius
				{
					OFFSET 0.000000 -27.561300 0.000000
					CHANNELS 3 Zrotation Xrotation Yrotation
					JOINT rhand
					{
						OFFSET 0.000000 -26.933000 0.000000
						CHANNELS 3 Zrotation Xrotation Yrotation
						End Site
						{
						    OFFSET 0.000000 -5.000000 0.000000
						}
					}
				}
			}
		}
	}
}
MOTION
Frames: 15
Frame Time:	0.0333333
49.448300 36.931900 10.931000 58.933961 -21.107240 -89.319621 -130.926961 -78.280122 -109.699661 -180.000037 41.492392 -180.000037 0.000000 24.761627 -0.846157 -0.000000 -1.033066 -0.000000 -146.373724 -73.833523 -134.241142 -180.000037 33.053746 -180.000037 0.000000 8.639960 5.077743 0.000000 -29.517533 -0.000000 -10.837749 47.841662 -14.274403 -13.425243 55.816266 12.586762 -3.358849 -0.000000 -0.437096 84.417129 -81.126422 61.240750 -180.000016 -75.066927 142.249558 39.901262 -6.082550 -0.000000 -11.286462 0.000000 8.905350 146.430293 -82.223220 166.154014 180.000037 -82.940099 -149.426310 -23.879319 4.616261 -0.000000 
49.601500 37.285200 10.798400 60.215974 -20.605353 -88.402166 -132.269214 -77.348302 -111.132981 -180.000037 41.820036 -180.000037 0.000000 23.736171 -0.212913 0.000000 -1.033066 0.000000 -145.725038 -73.327426 -134.480718 -180.000037 33.512557 -180.000037 0.000000 7.270776 4.627935 -0.000000 -29.517533 -0.000000 -10.011497 47.263232 -14.859150 -13.563086 56.702327 13.109284 -2.944351 -0.000000 -0.412347 88.359620 -80.321942 64.426856 180.000035 -74.566399 143.921340 40.206067 -6.223018 -0.000000 -10.517147 -0.000000 8.432015 147.003083 -82.043455 167.746563 180.000037 -82.820783 -149.313139 -24.792469 4.927531 -0.000000 
49.714600 37.575300 10.604800 61.355621 -20.426703 -87.712376 -133.262306 -76.558901 -111.889334 180.000037 42.051238 -180.000037 -0.000000 22.297399 0.339550 -0.000000 -1.033066 -0.000000 -146.500763 -72.886719 -136.085217 180.000037 33.783484 -180.000037 -0.000000 6.297611 3.405848 -0.000000 -29.517533 -0.000000 -9.801068 47.024733 -15.204206 -13.865617 57.125603 14.248396 -2.734167 -0.000000 0.706272 94.629718 -81.534191 70.230492 180.000026 -74.776548 143.400069 40.303442 -6.273625 0.000000 -10.938257 0.000000 7.245041 144.860518 -81.744464 164.949785 -180.000034 -81.774457 -151.130726 -24.364931 4.784511 0.000000 
49.799800 37.700200 10.361800 62.189576 -19.918864 -87.178736 -134.388772 -75.972075 -112.854371 -180.000037 41.858982 -180.000037 0.000000 21.431643 0.991047 -0.000000 -1.033066 0.000000 -146.949192 -72.595961 -137.746815 -180.000037 34.000834 -180.000037 0.000000 6.000569 2.186366 -0.000000 -29.517533 -0.000000 -9.297995 46.402001 -15.310816 -14.117505 57.670352 14.491878 -2.567859 -0.000000 0.337012 93.283570 -81.361508 69.006768 -180.000030 -74.491406 143.909543 40.116356 -6.389572 -0.000000 -9.966569 -0.000000 7.503706 144.696510 -81.847618 165.726448 -180.000035 -81.800136 -150.057127 -24.850776 4.951306 -0.000000 
49.795400 37.662900 10.152300 62.104158 -19.877608 -86.876166 -133.709668 -76.030924 -111.577055 180.000037 41.663502 -180.000037 -0.000000 21.327208 1.132442 -0.000000 -1.033066 0.000000 -146.021572 -72.496054 -137.043828 -180.000037 33.886128 -180.000037 0.000000 5.700437 2.809088 -0.000000 -29.517533 0.000000 -9.192181 46.471527 -15.415261 -13.786204 57.477037 14.318286 -2.376259 -0.000000 0.471113 93.044632 -81.394719 68.704937 -180.000034 -74.669007 144.013522 40.385051 -6.200193 0.000001 -10.554860 0.000000 7.361389 145.913109 -82.303825 166.512347 -180.000030 -81.446996 -150.594038 -24.943611 4.983543 -0.000000 
49.814700 37.485800 9.976600 61.500532 -20.369800 -87.000960 -133.004769 -76.535243 -110.439542 -180.000037 41.476437 -180.000037 -0.000000 21.887191 0.980492 -0.000000 -1.033066 -0.000000 -145.999420 -72.605021 -136.663009 180.000037 33.538253 -180.000037 0.000000 6.467906 2.742158 -0.000000 -29.517533 -0.000000 -10.121488 46.732921 -15.014022 -13.000382 56.756352 13.025783 -2.717942 0.000000 0.384593 93.904072 -81.356077 69.145796 -180.000029 -75.301017 144.244483 40.570683 -6.001575 -0.000000 -11.082600 0.000000 7.648194 150.206247 -83.105291 170.467937 -180.000018 -81.174944 -150.947711 -24.690585 4.896059 0.000000 
49.937900 37.205800 9.824600 60.457627 -20.694599 -87.181470 -131.826781 -77.079518 -108.967670 -180.000037 40.985742 180.000037 -0.000000 21.714011 0.902465 -0.000000 -1.033066 0.000000 -145.769495 -73.068517 -136.272168 -180.000037 32.959121 180.000037 0.000000 6.928986 2.540852 -0.000000 -29.517533 0.000000 -10.720871 47.180232 -14.675993 -12.362231 55.722583 11.846096 -2.984902 0.000000 0.153653 93.625725 -81.041926 68.306970 -180.000031 -75.935826 144.173705 41.219522 -5.597875 -0.000000 -11.777537 0.000000 7.958061 152.476481 -83.941273 172.153878 -180.000023 -81.093310 -150.650120 -25.557581 5.190291 0.000000 
50.148600 36.813300 9.673100 58.755843 -21.275940 -87.401610 -128.264232 -77.890558 -104.865389 -180.000037 40.400627 -180.000037 0.000000 21.534184 0.709832 -0.000000 -1.033066 -0.000000 -144.702692 -73.808632 -134.565060 -180.000037 32.179509 -180.000037 0.000000 7.556752 2.612972 0.000000 -29.517533 -0.000000 -12.064159 46.794749 -15.121033 -17.309634 57.172459 15.862865 -4.374350 -0.000000 -1.036727 89.311576 -78.298010 62.301612 180.000035 -77.724937 144.500916 42.400639 -5.505801 -0.000000 -12.484206 -0.000000 12.974557 -168.324028 -86.402508 -149.518876 -180.000037 -81.149972 -149.679107 -26.021882 5.346427 0.000000 
50.391700 36.385700 9.702300 56.194867 -22.540739 -87.807228 -122.158234 -78.862520 -96.106419 180.000037 38.864736 -180.000037 -0.000000 16.439266 -16.238972 -0.000000 -1.096464 -0.000000 -141.532892 -74.596023 -129.893293 -180.000037 31.068961 -180.000037 -0.000000 7.942329 2.867705 -0.000000 -29.517533 -0.000000 -13.559982 47.728292 -14.024980 -17.084561 57.055890 14.892872 -4.237972 -0.000000 -1.446077 84.526956 -78.419916 57.481654 -180.000027 -79.968281 144.110834 43.997143 -5.037786 0.000000 -12.125124 0.000000 14.160611 -147.413735 -86.829979 -128.939422 -180.000023 -82.720471 -147.925106 -27.397222 5.814831 0.000000 
50.746000 36.133000 9.750100 54.129963 -24.011213 -88.131190 -114.595575 -79.463202 -87.610983 -180.000037 38.823454 180.000037 -0.000000 16.367847 -17.421568 0.000000 -1.108756 -0.000000 -139.210223 -75.101244 -126.102280 -180.000037 30.173441 180.000037 -0.000000 7.371334 2.536909 -0.000000 -29.517533 -0.000000 -15.218794 49.328669 -11.335578 -9.964008 54.413448 8.402986 -3.384774 -0.000000 0.166210 85.908021 -83.500526 59.362495 180.000022 -84.195534 144.010009 45.474274 -5.813886 0.000000 -12.366116 0.000000 10.403214 -162.061202 -86.668533 -144.721579 -180.000012 -84.957196 -147.383592 -28.001370 6.021002 0.000000 
50.798700 36.410000 9.047400 47.795001 -24.462818 -91.994509 -69.065753 -81.628721 -44.138013 -180.000037 40.547968 180.000037 -0.000000 22.611203 -0.896157 -0.000000 -1.033066 -0.000000 -125.035632 -81.019078 -113.789701 180.000037 30.643590 180.000037 0.000000 6.527291 -1.673798 -0.000000 -29.517533 -0.000000 -19.357811 52.236644 -6.538023 -11.055601 53.853679 9.177168 -4.773252 0.000000 0.799518 87.743850 -84.068629 59.682387 179.999937 -88.902675 144.690423 46.697067 -6.068295 0.000000 -12.340532 -0.000000 11.542529 -139.313550 -86.885775 -122.091000 179.999994 -88.222061 -147.672644 -28.993187 6.352864 -0.000000 
51.292600 36.339300 9.120500 44.733510 -25.440468 -93.175063 -56.611456 -80.389115 -30.503522 -180.000037 40.455064 180.000037 -0.000000 22.315812 -0.766773 0.000000 -1.033066 -0.000000 -113.482322 -81.903936 -101.878093 -180.000037 30.002236 180.000037 -0.000000 4.969776 -3.472590 0.000000 -29.517533 -0.000000 -21.345048 52.716102 -5.438347 -11.230134 52.271825 9.132189 -5.248650 0.000000 0.824433 90.726741 -84.102267 62.252291 -0.000019 -85.912974 -35.177821 48.041988 -6.030600 0.000000 -12.530980 -0.000000 11.992318 -132.529822 -86.562940 -115.273036 0.000037 -86.837674 31.010016 -30.140285 6.736166 0.000000 
51.799400 36.161900 9.168000 41.488943 -25.661852 -94.432216 -46.647127 -78.930665 -20.149093 -180.000037 40.072477 180.000037 -0.000000 22.698444 -0.717081 -0.000000 -1.033066 -0.000000 -98.206166 -82.523202 -86.539156 -180.000037 29.416724 180.000037 -0.000000 4.100078 -4.458708 0.000000 -29.517533 -0.000000 -22.541041 53.016991 -4.899178 -11.740997 49.539444 9.655199 -6.325840 -0.000000 0.672742 94.444593 -83.880784 65.637153 -0.000006 -80.071241 -34.563110 48.319889 -6.297876 -0.000000 -12.523133 -0.000000 12.343005 -144.859504 -86.683937 -127.304187 -0.000001 -79.881331 31.468880 -32.013825 7.363910 0.000001 
52.207800 35.941200 9.158500 37.080856 -25.515044 -96.423925 -35.131386 -76.574039 -8.355893 180.000037 39.629854 -180.000037 0.000000 24.156012 -1.139359 -0.000000 -1.033066 -0.000000 -71.773460 -82.474732 -59.904196 -180.000037 28.874393 180.000037 -0.000000 3.759946 -4.993827 -0.000000 -29.517533 -0.000000 -24.020525 52.321747 -4.713202 -15.036258 48.074719 11.932235 -8.499527 -0.000000 -1.655601 87.633822 -80.290790 58.100168 0.000003 -73.595645 -35.628685 49.238123 -5.286400 -0.000000 -12.848001 0.000000 16.634708 -120.062905 -86.408961 -102.922348 -0.000007 -71.702409 30.837680 -31.679981 7.243560 0.000000 
52.490800 35.821900 9.169400 32.668661 -25.423412 -98.177123 -28.494975 -73.592778 -1.224104 -180.000037 39.439360 180.000037 0.000000 25.225710 -1.458926 -0.000000 -1.033066 -0.000000 -50.980554 -80.815809 -38.341209 180.000037 28.453968 -180.000037 -0.000000 3.256551 -4.357669 -0.000000 -29.517533 0.000000 -25.552769 53.014615 -3.924887 -13.372801 42.511538 11.215755 -9.059004 0.000000 -1.233414 92.757946 -81.159136 63.923061 0.000004 -64.992592 -35.135738 49.817872 -5.802276 -0.000001 -13.937702 0.000000 16.064997 -165.352206 -86.151363 -149.613471 0.000001 -61.146048 30.276775 -29.718484 6.578379 -0.000000 
